<?xml version="1.0" encoding="utf-8"?>
<!-- Generator: Adobe Illustrator 21.1.0, SVG Export Plug-In . SVG Version: 6.00 Build 0)  -->
<svg version="1.1" id="edit-pencil-icon" xmlns="http://www.w3.org/2000/svg" xmlns:xlink="http://www.w3.org/1999/xlink" x="0px"
	 y="0px" viewBox="0 0 25.6 25.6" style="enable-background:new 0 0 25.6 25.6;" xml:space="preserve">
<style type="text/css">
	.st0{fill:#D80027;}
</style>
<title>edit-pencil-icon</title>
<g>
	<g id="circle">
		<path class="st0" d="M12.8,0C5.7,0,0,5.7,0,12.8s5.7,12.8,12.8,12.8s12.8-5.7,12.8-12.8S19.9,0,12.8,0z M12.8,24.8
			c-6.6,0-12-5.4-12-12s5.4-12,12-12s12,5.4,12,12S19.4,24.8,12.8,24.8z"/>
	</g>
	<g id="pencil">
		<path class="st0" d="M17.2,8.9l-2.7-1.6c-0.4-0.2-0.8-0.1-1.1,0.3c0,0,0,0,0,0l-2.9,5.3l-0.4,0.7c-0.1,0.2-0.3,0.5-0.3,0.8L9.6,18
			c0,0,0.2,0.8,0.8,0.8v0c0.1,0,0.2,0,0.3-0.1l2.9-2c0.3-0.1,0.4-0.4,0.5-0.7l0.4-0.7l0.2-0.4l2.7-5C17.7,9.6,17.6,9.2,17.2,8.9z
			 M15.1,12.9l-1,1.7L13.9,15c0,0-0.1,0.2-0.4,0.7s-0.8,0.9-1,1L11,17.8c-0.2,0.1-0.4,0.1-0.6,0c-0.2-0.1-0.3-0.3-0.3-0.5l0.3-1.9
			c0-0.2,0.1-0.9,0.3-1.4l0.8-1.4l0.8-1.4l0.6-1.1l2.7,1.6L15.1,12.9z M16,11.1l-2.7-1.6L14.1,8l2.7,1.6L16,11.1z"/>
	</g>
</g>
</svg>
