<svg id="Icon_Edit" data-name="Icon Edit" xmlns="http://www.w3.org/2000/svg" viewBox="0 0 512 512">
  <defs>
    <style>
      .cls-1 {
        fill: #444444;
        z-index: 0;
      }

      .cls-2 {
        fill: #ccdbd7;
        z-index: 2;
      }
    </style>
  </defs>
  <title>icon-edit__hover</title>
  <g id="circle" data-name="circle">
    <path class="cls-1" d="M256,0C114.62,0,0,114.62,0,256S114.62,512,256,512,512,397.38,512,256,397.38,0,256,0Z"/>
  </g>
  <path class="cls-2" d="M344.1,178.46l-54.31-32.26a15.44,15.44,0,0,0-21.42,5.9L210,258.8l-7.83,14c-2.55,4.54-6.25,10.22-5.88,16.17L192.1,360s3.3,16,15.9,16v-.11a15,15,0,0,0,6.61-1.58l58.45-39.81c5.18-2.62,8.07-8.79,10.62-13.33l7.84-14,3.92-7,54.39-99.71A16.37,16.37,0,0,0,344.1,178.46Zm-42.64,78.76-19.59,34.92-3.92,7s-2.82,5-7.84,14-15.73,17.5-19.62,19.46l-29.74,24.09a11.39,11.39,0,0,1-11.06-.36,12.09,12.09,0,0,1-5.83-9.67l5.39-38.54c-.27-4.44,1.46-18.17,6.54-27.21l15.68-28L247.14,225l11.43-21.29,54.33,32.25Zm18.88-35.14L266,189.82l15.94-29.66,54.32,32.26Z"/>
</svg>
