<svg id="Layer_1" data-name="Layer 1" xmlns="http://www.w3.org/2000/svg" viewBox="0 0 25.6 25.6">
  <defs>
    <style>
      .cls-1 {
        fill: #04bddb;
      }

      .cls-2 {
        fill: #ccdbd7;
      }
    </style>
  </defs>
  <title>icon-delete__hover</title>
  <path class="cls-1" d="M20,32.8A12.8,12.8,0,1,1,32.8,20,12.81,12.81,0,0,1,20,32.8Z" transform="translate(-7.2 -7.2)"/>
  <g>
    <path class="cls-2" d="M16.19,24.25a.43.43,0,0,1-.31-.74l7.62-7.62a.43.43,0,1,1,.61.61L16.5,24.12A.43.43,0,0,1,16.19,24.25Z" transform="translate(-7.2 -7.2)"/>
    <path class="cls-2" d="M23.81,24.25a.43.43,0,0,1-.31-.13L15.88,16.5a.43.43,0,0,1,.61-.61l7.62,7.62a.43.43,0,0,1-.31.74Z" transform="translate(-7.2 -7.2)"/>
  </g>
</svg>
